:SAMPLES-PER-SECOND 30
:FULLY-SPECIFIED
:DEGREES
527
root  0.92722 39.7432 13.0094 -172.917 -0.482513 -179.272
RightUpLeg  -15.3956 -2.85209 -5.6265
RightLeg  12.5686 6.27576 -0.0526586
RightFoot  -2.72646 -0.47999 6.12504
RightToes  -1.33073e-015 0 -3.6325e-017
Spine  18.7499 0.828555 7.50791
Spine1  10.601 2.29108 -0.89427
HEad  7.5194 -10.6737 2.84205
LeftShoulder1  7.45701 -16.7831 -30.7033
LeftArm  4.4608 -31.2671 -67.1481
LeftForeArm  18.2062 6.44517 -9.43856
LeftHand  -0.246645 0.021 5.37786
RightShoulder  8.96472 16.9857 37.6809
RightArm  7.54939 31.8419 50.4971
RightForeArm  3.782 12.4474 10.4143
RightHand  -0.24729 -0.0210522 -5.37781
LeftUpLeg  -12.8139 14.1326 12.2837
LeftLeg  8.60194 1.67735 -1.77252
LeftFoot  1.12105 1.14944 -10.5703
LeftToes  5.09284e-011 3.02203e-011 3.83118e-011
528
root  0.848299 39.728 13.0278 -172.839 0.727753 -179.387
RightUpLeg  -15.9035 -1.80207 -5.92875
RightLeg  12.8608 6.39128 -0.0134324
RightFoot  -2.7189 -0.484661 6.21478
RightToes  -1.33073e-015 0 -3.6325e-017
Spine  19.078 1.18625 6.99658
Spine1  10.5287 2.54654 -0.58465
HEad  7.33315 -10.3389 2.44835
LeftShoulder1  7.48251 -16.7925 -30.813
LeftArm  2.64243 -32.6632 -67.7566
LeftForeArm  21.7467 7.33481 -8.10264
LeftHand  -0.246645 0.021 5.37786
RightShoulder  8.99026 17.0429 37.6825
RightArm  5.41471 33.4508 51.1522
RightForeArm  10.2725 9.4898 11.4303
RightHand  -0.24729 -0.0210522 -5.37781
LeftUpLeg  -12.5791 14.4345 12.2462
LeftLeg  8.73848 2.43442 -1.86626
LeftFoot  1.00237 1.16754 -10.8296
LeftToes  5.09284e-011 3.02203e-011 3.83118e-011
529
root  0.790858 39.7237 13.0444 -172.76 1.66606 -179.629
RightUpLeg  -16.3732 -0.577019 -6.35179
RightLeg  13.1693 6.05747 -0.109362
RightFoot  -2.7081 -0.483806 6.20392
RightToes  -1.33073e-015 0 -3.6325e-017
Spine  19.5644 1.58195 6.20561
Spine1  10.2744 2.7162 0.0281054
HEad  7.1619 -10.1256 2.0784
LeftShoulder1  7.50511 -16.8432 -30.8318
LeftArm  0.946083 -33.3609 -68.209
LeftForeArm  23.7478 7.03367 -7.03565
LeftHand  -0.246645 0.021 5.37786
RightShoulder  9.02403 17.1011 37.7206
RightArm  3.79019 34.5508 51.4468
RightForeArm  13.6815 7.11501 12.0319
RightHand  -0.24729 -0.0210522 -5.37781
LeftUpLeg  -12.3333 14.4919 12.0825
LeftLeg  8.68271 3.26796 -1.97679
LeftFoot  0.921851 1.16247 -10.8496
LeftToes  5.09284e-011 3.02203e-011 3.83118e-011
530
root  0.752388 39.7206 13.0549 -172.663 2.02823 -179.833
RightUpLeg  -16.7078 0.115658 -6.69009
RightLeg  13.4162 5.70522 -0.188688
RightFoot  -2.72288 -0.479506 6.13847
RightToes  -1.33073e-015 0 -3.6325e-017
Spine  20.1028 1.77463 5.71498
Spine1  9.84128 2.74557 0.49491
HEad  7.25945 -10.098 1.9834
LeftShoulder1  7.52597 -16.9158 -30.8014
LeftArm  -0.406135 -33.6356 -68.6032
LeftForeArm  25.5247 6.86892 -6.12493
LeftHand  -0.246645 0.021 5.37786
RightShoulder  9.05827 17.1267 37.8277
RightArm  3.72678 35.1408 51.5274
RightForeArm  15.2301 5.83905 12.3944
RightHand  -0.24729 -0.0210522 -5.37781
LeftUpLeg  -12.2819 14.3521 11.8701
LeftLeg  8.56431 3.7835 -2.01253
LeftFoot  1.01445 1.17627 -10.8998
LeftToes  5.09284e-011 3.02203e-011 3.83118e-011
531
root  0.722942 39.7104 13.0535 -172.603 1.93736 -179.899
RightUpLeg  -16.832 0.150446 -6.84636
RightLeg  13.568 5.5852 -0.166229
RightFoot  -2.78618 -0.483597 6.21619
RightToes  -1.33073e-015 0 -3.6325e-017
Spine  20.5447 1.71666 5.7355
Spine1  9.52086 2.67987 0.599553
HEad  7.51278 -10.2002 2.14342
LeftShoulder1  7.53226 -16.9571 -30.7567
LeftArm  -1.76723 -33.7795 -69.1187
LeftForeArm  27.4226 6.69027 -5.1582
LeftHand  -0.246645 0.021 5.37786
RightShoulder  9.05702 17.1262 37.8247
RightArm  4.26056 35.3466 51.6169
RightForeArm  16.4104 5.26295 12.6382
RightHand  -0.24729 -0.0210522 -5.37781
LeftUpLeg  -12.4852 14.3369 11.6845
LeftLeg  8.74819 3.68524 -1.93411
LeftFoot  0.956465 1.17884 -10.9719
LeftToes  5.09284e-011 3.02203e-011 3.83118e-011
532
root  0.697789 39.694 13.0356 -172.606 1.71222 -179.876
RightUpLeg  -16.8101 -0.0551438 -6.89643
RightLeg  13.6942 5.56661 -0.085243
RightFoot  -2.89964 -0.491637 6.38403
RightToes  -1.33073e-015 0 -3.6325e-017
Spine  20.7628 1.5606 6.05156
Spine1  9.54899 2.59931 0.521142
HEad  7.70769 -10.3549 2.31225
LeftShoulder1  7.55025 -16.9605 -30.8394
LeftArm  -3.02691 -33.8921 -69.6215
LeftForeArm  28.8646 6.52317 -4.25126
LeftHand  -0.246645 0.021 5.37786
RightShoulder  9.0074 17.125 37.5994
RightArm  4.42608 35.2259 51.7172
RightForeArm  17.0607 5.05401 12.719
RightHand  -0.24729 -0.0210522 -5.37781
LeftUpLeg  -12.8034 14.5493 11.5349
LeftLeg  9.26383 3.1865 -1.78214
LeftFoot  0.648353 1.1507 -10.9707
LeftToes  5.09284e-011 3.02203e-011 3.83118e-011
533
root  0.678859 39.6803 13.003 -172.639 1.52119 -179.854
RightUpLeg  -16.7469 -0.230295 -6.92839
RightLeg  13.8374 5.53942 -0.0163997
RightFoot  -3.02293 -0.488959 6.43267
RightToes  -1.33073e-015 0 -3.6325e-017
Spine  20.7845 1.39906 6.40908
Spine1  9.82237 2.51258 0.433724
HEad  7.81419 -10.3759 2.33995
LeftShoulder1  7.60074 -16.9671 -31.0767
LeftArm  -3.67647 -33.8968 -69.8007
LeftForeArm  29.7135 6.43481 -3.7849
LeftHand  -0.246645 0.021 5.37786
RightShoulder  8.94864 17.1236 37.3196
RightArm  4.44511 34.8556 51.7666
RightForeArm  17.0874 5.28785 12.6626
RightHand  -0.24729 -0.0210522 -5.37781
LeftUpLeg  -13.0308 14.7811 11.4126
LeftLeg  9.73463 2.71875 -1.64688
LeftFoot  0.3852 1.12211 -10.9259
LeftToes  5.09284e-011 3.02203e-011 3.83118e-011
534
root  0.671583 39.6741 12.9615 -172.684 1.34972 -179.868
RightUpLeg  -16.6651 -0.327067 -6.96975
RightLeg  13.9838 5.46865 0.0140913
RightFoot  -3.1361 -0.478446 6.36486
RightToes  -1.33073e-015 0 -3.6325e-017
Spine  20.8022 1.20493 6.68498
Spine1  10.0325 2.38258 0.319098
HEad  7.89808 -10.1139 2.29453
LeftShoulder1  7.63761 -16.983 -31.229
LeftArm  -3.7066 -33.6845 -69.6953
LeftForeArm  30.2791 6.42542 -3.77172
LeftHand  -0.246645 0.021 5.37786
RightShoulder  8.91909 17.1191 37.1901
RightArm  4.97745 34.3125 51.823
RightForeArm  16.9416 6.04964 12.5305
RightHand  -0.24729 -0.0210522 -5.37781
LeftUpLeg  -13.0878 14.8695 11.3285
LeftLeg  9.94216 2.44348 -1.57715
LeftFoot  0.30712 1.11242 -10.9004
LeftToes  5.09284e-011 3.02203e-011 3.83118e-011
535
root  0.677123 39.671 12.9142 -172.731 1.17648 -179.874
RightUpLeg  -16.5607 -0.260492 -6.99308
RightLeg  14.1147 5.25721 -0.0107896
RightFoot  -3.25896 -0.470871 6.34322
RightToes  -1.33073e-015 0 -3.6325e-017
Spine  20.9466 0.998693 6.84947
Spine1  10.0015 2.22801 0.204999
HEad  7.97789 -9.72938 2.28051
LeftShoulder1  7.61481 -16.9676 -31.145
LeftArm  -3.57922 -33.297 -69.6667
LeftForeArm  30.6938 6.43706 -3.8734
LeftHand  -0.246645 0.021 5.37786
RightShoulder  8.90381 17.0945 37.1687
RightArm  6.11105 33.5375 51.9314
RightForeArm  16.3741 7.26189 12.3092
RightHand  -0.24729 -0.0210522 -5.37781
LeftUpLeg  -13.0723 14.9134 11.3031
LeftLeg  10.0502 2.21879 -1.55171
LeftFoot  0.235337 1.10614 -10.9024
LeftToes  5.09284e-011 3.02203e-011 3.83118e-011
536
root  0.6864 39.6667 12.8601 -172.732 1.05862 -179.819
RightUpLeg  -16.4867 0.00219083 -6.95548
RightLeg  14.2064 4.89904 -0.0899823
RightFoot  -3.38011 -0.467868 6.38474
RightToes  -1.33073e-015 0 -3.6325e-017
Spine  21.098 0.877581 6.95072
Spine1  9.84882 2.12225 0.214138
HEad  8.04416 -9.51348 2.29409
LeftShoulder1  7.56455 -16.9042 -31.0139
LeftArm  -3.49385 -32.9435 -69.8585
LeftForeArm  30.9967 6.44148 -3.92394
LeftHand  -0.246645 0.021 5.37786
RightShoulder  8.86837 17.046 37.1011
RightArm  7.67484 32.4776 52.0217
RightForeArm  14.5835 8.89147 11.9226
RightHand  -0.24729 -0.0210522 -5.37781
LeftUpLeg  -13.1136 15.0771 11.3455
LeftLeg  10.2402 1.93235 -1.54284
LeftFoot  0.0651414 1.09396 -10.9341
LeftToes  5.09284e-011 3.02203e-011 3.83118e-011
537
root  0.685642 39.6646 12.7994 -172.658 1.06297 -179.72
RightUpLeg  -16.4721 0.273446 -6.87012
RightLeg  14.2167 4.62521 -0.166373
RightFoot  -3.44378 -0.464464 6.38267
RightToes  -1.33073e-015 0 -3.6325e-017
Spine  21.0598 0.865738 7.06017
Spine1  9.82125 2.09412 0.336291
HEad  8.08592 -9.44082 2.28475
LeftShoulder1  7.53731 -16.8203 -31.0342
LeftArm  -3.33584 -32.7469 -70.0598
LeftForeArm  31.3569 6.44782 -3.99112
LeftHand  -0.246645 0.021 5.37786
RightShoulder  8.82009 16.985 36.998
RightArm  9.7464 31.3443 52.031
RightForeArm  11.7172 10.8436 11.3246
RightHand  -0.24729 -0.0210522 -5.37781
LeftUpLeg  -13.1956 15.3289 11.4235
LeftLeg  10.4478 1.68867 -1.55144
LeftFoot  -0.0885296 1.08289 -10.9626
LeftToes  5.09284e-011 3.02203e-011 3.83118e-011
